<svg width="128" height="128" viewBox="0 0 128 128" fill="none" xmlns="http://www.w3.org/2000/svg">
<path fill-rule="evenodd" clip-rule="evenodd" d="M26.5846 0C30.9349 0 34.4615 3.52662 34.4615 7.87692V18.7077H93.5385V7.87692C93.5385 3.52662 97.0651 0 101.415 0C105.766 0 109.292 3.52662 109.292 7.87692V18.7077H120.123C124.473 18.7077 128 22.2343 128 26.5846C128 30.9349 124.473 34.4615 120.123 34.4615H109.292V93.5385H120.123C124.473 93.5385 128 97.0651 128 101.415C128 105.766 124.473 109.292 120.123 109.292H109.292V120.123C109.292 124.473 105.766 128 101.415 128C97.0651 128 93.5385 124.473 93.5385 120.123V109.292H34.4615V120.123C34.4615 124.473 30.9349 128 26.5846 128C22.2343 128 18.7077 124.473 18.7077 120.123V109.292H7.87692C3.52662 109.292 0 105.766 0 101.415C0 97.0651 3.52662 93.5385 7.87692 93.5385H18.7077V34.4615H7.87692C3.52662 34.4615 0 30.9349 0 26.5846C0 22.2343 3.52662 18.7077 7.87692 18.7077H18.7077V7.87692C18.7077 3.52662 22.2343 0 26.5846 0ZM34.4615 34.4615V93.5385H93.5385V34.4615H34.4615Z" fill="#101D2D"/>
<path fill-rule="evenodd" clip-rule="evenodd" d="M50.0363 46.5455H77.9636C79.8917 46.5455 81.4545 48.1084 81.4545 50.0364V77.9637C81.4545 79.8918 79.8917 81.4546 77.9636 81.4546H50.0363C48.1084 81.4546 46.5454 79.8918 46.5454 77.9637V50.0364C46.5454 48.1084 48.1084 46.5455 50.0363 46.5455Z" fill="#101D2D"/>
</svg>
