<svg width="155" height="26" viewBox="0 0 155 26" fill="none" xmlns="http://www.w3.org/2000/svg">
<path d="M-1 25.6462L3.42763 0L11.4779 0.0176142C12.5512 0.0410998 13.5896 0.182013 14.5929 0.440355C15.5963 0.686953 16.4772 1.08621 17.2355 1.63812C17.9939 2.17829 18.5831 2.87698 19.0031 3.73421C19.4231 4.59143 19.5864 5.63654 19.4931 6.86953C19.4348 7.5741 19.2831 8.21995 19.0381 8.80709C18.7931 9.38249 18.4664 9.89917 18.058 10.3571C17.6614 10.8151 17.1947 11.2261 16.658 11.5901C16.133 11.9424 15.5613 12.2477 14.943 12.5061C15.5263 12.7174 16.0222 13.011 16.4305 13.3868C16.8505 13.7625 17.1889 14.1912 17.4455 14.6726C17.7022 15.1541 17.883 15.6825 17.988 16.2579C18.093 16.8215 18.128 17.3969 18.093 17.9841C17.9997 19.3345 17.6672 20.497 17.0955 21.4717C16.5238 22.4463 15.7888 23.2448 14.8905 23.8672C14.0038 24.4896 12.9887 24.9476 11.8454 25.2411C10.702 25.5229 9.5178 25.658 8.29277 25.6462H-1ZM5.77269 14.3379L4.51266 21.6478L8.52027 21.6831C9.10362 21.6713 9.66364 21.5891 10.2003 21.4365C10.7487 21.2838 11.2387 21.0548 11.6704 20.7495C12.1137 20.4325 12.4812 20.0449 12.7729 19.587C13.0646 19.129 13.2571 18.5888 13.3504 17.9665C13.5137 16.8626 13.3446 15.9995 12.8429 15.3772C12.3412 14.7431 11.542 14.4025 10.4453 14.3556L5.77269 14.3379ZM6.38521 10.7623L9.72781 10.7975C10.2995 10.7975 10.8595 10.7329 11.4079 10.6037C11.9562 10.4746 12.4521 10.2691 12.8954 9.98724C13.3504 9.70541 13.7296 9.34726 14.0329 8.91278C14.3363 8.46655 14.5346 7.92638 14.6279 7.29227C14.7096 6.70513 14.6804 6.21193 14.5404 5.81268C14.4004 5.40168 14.1788 5.07288 13.8754 4.82629C13.5721 4.56794 13.1987 4.38006 12.7554 4.26263C12.312 4.13346 11.8279 4.063 11.3029 4.05126L7.55774 4.03365L6.38521 10.7623Z" fill="white"/>
<path d="M35.0874 6.20019C35.6941 6.21193 36.2891 6.26478 36.8725 6.35872C37.4675 6.44092 38.0625 6.55835 38.6575 6.711L37.3625 11.5901C36.7558 11.4375 36.1491 11.32 35.5424 11.2378C34.9358 11.1439 34.3174 11.0911 33.6874 11.0793C31.214 11.0558 29.3239 12.0892 28.0172 14.1794L26.0397 25.6462H21.297L24.5871 6.5877H28.9973L28.5072 9.72303C28.9273 9.20634 29.3764 8.73076 29.8548 8.29628C30.3331 7.8618 30.8465 7.4919 31.3948 7.18659C31.9432 6.86953 32.5207 6.6288 33.1274 6.4644C33.7457 6.28826 34.3991 6.20019 35.0874 6.20019Z" fill="white"/>
<path d="M47.5842 25.9985C46.2892 25.975 45.1166 25.7284 44.0666 25.2587C43.0282 24.7773 42.1474 24.1314 41.424 23.3212C40.7123 22.4992 40.1873 21.5363 39.849 20.4325C39.5106 19.3286 39.3998 18.1309 39.5165 16.8392L39.5865 16.117C39.7381 14.7783 40.094 13.5042 40.654 12.2947C41.214 11.0852 41.9374 10.0283 42.8241 9.12415C43.7224 8.21995 44.7666 7.50364 45.9566 6.97522C47.1467 6.44679 48.4417 6.20019 49.8418 6.23542C51.1601 6.27065 52.2977 6.5466 53.2544 7.06329C54.211 7.57997 54.9811 8.27279 55.5644 9.14176C56.1594 9.99898 56.562 10.9854 56.772 12.1009C56.9936 13.2165 57.0286 14.3908 56.877 15.6238L56.5619 17.7023H44.1891C44.1658 18.3129 44.2416 18.8824 44.4166 19.4108C44.5916 19.9275 44.8424 20.3796 45.1691 20.7671C45.5075 21.1546 45.9216 21.4658 46.4117 21.7007C46.9017 21.9238 47.4617 22.0412 48.0917 22.053C49.0834 22.0882 50.0168 21.9179 50.8918 21.5421C51.7785 21.1546 52.5602 20.6086 53.2369 19.904L55.3894 22.5638C54.9694 23.1744 54.4561 23.6969 53.8494 24.1314C53.2544 24.5659 52.6068 24.9241 51.9068 25.2059C51.2185 25.4877 50.5009 25.6932 49.7543 25.8224C49.0076 25.9516 48.2842 26.0103 47.5842 25.9985ZM49.4917 10.181C48.8617 10.1575 48.2959 10.2632 47.7942 10.4981C47.2925 10.7329 46.8433 11.05 46.4467 11.4492C46.0616 11.8485 45.7233 12.3006 45.4316 12.8055C45.14 13.3104 44.8833 13.8213 44.6616 14.3379H52.3793L52.4668 13.8976C52.5485 13.3809 52.5368 12.8995 52.4318 12.4532C52.3268 12.007 52.1402 11.6195 51.8718 11.2907C51.6151 10.9619 51.2826 10.7035 50.8743 10.5157C50.4776 10.316 50.0168 10.2045 49.4917 10.181Z" fill="white"/>
<path d="M67.1861 25.9985C65.8911 25.975 64.7186 25.7284 63.6686 25.2587C62.6302 24.7773 61.7493 24.1314 61.026 23.3212C60.3143 22.4992 59.7893 21.5363 59.4509 20.4325C59.1126 19.3286 59.0018 18.1309 59.1184 16.8392L59.1884 16.117C59.3401 14.7783 59.6959 13.5042 60.256 12.2947C60.816 11.0852 61.5393 10.0283 62.426 9.12415C63.3244 8.21995 64.3686 7.50364 65.5586 6.97522C66.7486 6.44679 68.0437 6.20019 69.4437 6.23542C70.7621 6.27065 71.8996 6.5466 72.8563 7.06329C73.813 7.57997 74.583 8.27279 75.1664 9.14176C75.7614 9.99898 76.1639 10.9854 76.3739 12.1009C76.5956 13.2165 76.6306 14.3908 76.4789 15.6238L76.1639 17.7023H63.7911C63.7677 18.3129 63.8436 18.8824 64.0186 19.4108C64.1936 19.9275 64.4444 20.3796 64.7711 20.7671C65.1094 21.1546 65.5236 21.4658 66.0136 21.7007C66.5036 21.9238 67.0636 22.0412 67.6937 22.053C68.6854 22.0882 69.6187 21.9179 70.4937 21.5421C71.3804 21.1546 72.1621 20.6086 72.8388 19.904L74.9914 22.5638C74.5714 23.1744 74.058 23.6969 73.4513 24.1314C72.8563 24.5659 72.2088 24.9241 71.5088 25.2059C70.8204 25.4877 70.1029 25.6932 69.3562 25.8224C68.6095 25.9516 67.8862 26.0103 67.1861 25.9985ZM69.0937 10.181C68.4637 10.1575 67.8978 10.2632 67.3962 10.4981C66.8945 10.7329 66.4453 11.05 66.0486 11.4492C65.6636 11.8485 65.3253 12.3006 65.0336 12.8055C64.7419 13.3104 64.4852 13.8213 64.2636 14.3379H71.9813L72.0688 13.8976C72.1505 13.3809 72.1388 12.8995 72.0338 12.4532C71.9288 12.007 71.7421 11.6195 71.4738 11.2907C71.2171 10.9619 70.8846 10.7035 70.4762 10.5157C70.0796 10.316 69.6187 10.2045 69.0937 10.181Z" fill="white"/>
<path d="M84.6355 21.7183H95.3109L94.6983 25.6462H77.4078L77.9154 22.4405L89.8857 10.5685H79.9804L80.6104 6.5877H97.2359L96.7459 9.70541L84.6355 21.7183Z" fill="white"/>
<path d="M106.39 25.9985C105.095 25.975 103.922 25.7284 102.872 25.2587C101.834 24.7773 100.953 24.1314 100.23 23.3212C99.5182 22.4992 98.9932 21.5363 98.6548 20.4325C98.3165 19.3286 98.2057 18.1309 98.3223 16.8392L98.3923 16.117C98.544 14.7783 98.8999 13.5042 99.4599 12.2947C100.02 11.0852 100.743 10.0283 101.63 9.12415C102.528 8.21995 103.572 7.50364 104.763 6.97522C105.953 6.44679 107.248 6.20019 108.648 6.23542C109.966 6.27065 111.104 6.5466 112.06 7.06329C113.017 7.57997 113.787 8.27279 114.37 9.14176C114.965 9.99898 115.368 10.9854 115.578 12.1009C115.8 13.2165 115.835 14.3908 115.683 15.6238L115.368 17.7023H102.995C102.972 18.3129 103.047 18.8824 103.222 19.4108C103.397 19.9275 103.648 20.3796 103.975 20.7671C104.313 21.1546 104.728 21.4658 105.218 21.7007C105.708 21.9238 106.268 22.0412 106.898 22.053C107.889 22.0882 108.823 21.9179 109.698 21.5421C110.584 21.1546 111.366 20.6086 112.043 19.904L114.195 22.5638C113.775 23.1744 113.262 23.6969 112.655 24.1314C112.06 24.5659 111.413 24.9241 110.713 25.2059C110.024 25.4877 109.307 25.6932 108.56 25.8224C107.813 25.9516 107.09 26.0103 106.39 25.9985ZM108.298 10.181C107.668 10.1575 107.102 10.2632 106.6 10.4981C106.098 10.7329 105.649 11.05 105.253 11.4492C104.868 11.8485 104.529 12.3006 104.238 12.8055C103.946 13.3104 103.689 13.8213 103.467 14.3379H111.185L111.273 13.8976C111.354 13.3809 111.343 12.8995 111.238 12.4532C111.133 12.007 110.946 11.6195 110.678 11.2907C110.421 10.9619 110.089 10.7035 109.68 10.5157C109.283 10.316 108.823 10.2045 108.298 10.181Z" fill="white"/>
<path d="M126.902 0L127.567 9.5645L131.872 0H137.892L133.465 25.6462H129.055L130.402 17.8608L132.572 6.44679L127.585 17.1914H125.187L124.119 6.35872L122.264 18.2483L120.987 25.6462H116.577L121.004 0H126.902Z" fill="white"/>
<path d="M143.51 21.6478H149.303L154.395 25.6462H146.205H138.015L142.425 0H147.255L143.51 21.6478Z" fill="white"/>
</svg>
