<svg width="199" height="200" viewBox="0 0 199 200" fill="none" xmlns="http://www.w3.org/2000/svg">
<rect x="-1" width="200" height="200" fill="#101D2D"/>
<path d="M22 112.646L26.3594 87L34.2855 87.0176C35.3423 87.0411 36.3647 87.182 37.3526 87.4404C38.3405 87.687 39.2078 88.0862 39.9544 88.6381C40.7011 89.1783 41.2812 89.877 41.6947 90.7342C42.1083 91.5914 42.2691 92.6365 42.1772 93.8695C42.1198 94.5741 41.9704 95.22 41.7292 95.8071C41.488 96.3825 41.1663 96.8992 40.7643 97.3571C40.3737 97.8151 39.9142 98.2261 39.3858 98.5901C38.8689 98.9424 38.306 99.2477 37.6972 99.5061C38.2716 99.7174 38.7598 100.011 39.1618 100.387C39.5754 100.763 39.9085 101.191 40.1612 101.673C40.4139 102.154 40.592 102.682 40.6954 103.258C40.7987 103.822 40.8332 104.397 40.7987 104.984C40.7068 106.334 40.3795 107.497 39.8166 108.472C39.2537 109.446 38.53 110.245 37.6455 110.867C36.7725 111.49 35.7731 111.948 34.6474 112.241C33.5216 112.523 32.3557 112.658 31.1495 112.646H22ZM28.6683 101.338L27.4277 108.648L31.3735 108.683C31.9479 108.671 32.4993 108.589 33.0277 108.436C33.5676 108.284 34.05 108.055 34.4751 107.75C34.9116 107.432 35.2734 107.045 35.5606 106.587C35.8478 106.129 36.0373 105.589 36.1292 104.966C36.29 103.863 36.1235 103 35.6295 102.377C35.1356 101.743 34.3487 101.403 33.2689 101.356L28.6683 101.338ZM29.2714 97.7623L32.5624 97.7975C33.1253 97.7975 33.6767 97.7329 34.2166 97.6037C34.7565 97.4746 35.2447 97.2691 35.6812 96.9872C36.1292 96.7054 36.5025 96.3473 36.8012 95.9128C37.0999 95.4665 37.2952 94.9264 37.387 94.2923C37.4675 93.7051 37.4387 93.2119 37.3009 92.8127C37.163 92.4017 36.9448 92.0729 36.6461 91.8263C36.3475 91.5679 35.9799 91.3801 35.5434 91.2626C35.1068 91.1335 34.6301 91.063 34.1132 91.0513L30.4258 91.0336L29.2714 97.7623Z" fill="#F1F5F9"/>
<path d="M57.5312 93.2002C58.1285 93.2119 58.7143 93.2648 59.2887 93.3587C59.8745 93.4409 60.4604 93.5583 61.0462 93.711L59.7712 98.5901C59.1738 98.4375 58.5765 98.32 57.9792 98.2378C57.3818 98.1439 56.773 98.0911 56.1527 98.0793C53.7174 98.0558 51.8565 99.0892 50.5699 101.179L48.6229 112.646H43.9533L47.1927 93.5877H51.5349L51.0524 96.723C51.4659 96.2063 51.9082 95.7308 52.3792 95.2963C52.8501 94.8618 53.3556 94.4919 53.8955 94.1866C54.4354 93.8695 55.004 93.6288 55.6013 93.4644C56.2101 93.2883 56.8534 93.2002 57.5312 93.2002Z" fill="#F1F5F9"/>
<path d="M69.8353 112.999C68.5602 112.975 67.4057 112.728 66.3719 112.259C65.3495 111.777 64.4823 111.131 63.7701 110.321C63.0694 109.499 62.5524 108.536 62.2193 107.432C61.8862 106.329 61.777 105.131 61.8919 103.839L61.9608 103.117C62.1102 101.778 62.4605 100.504 63.0119 99.2947C63.5633 98.0852 64.2755 97.0283 65.1485 96.1241C66.033 95.22 67.0611 94.5036 68.2328 93.9752C69.4045 93.4468 70.6796 93.2002 72.0581 93.2354C73.3561 93.2706 74.4761 93.5466 75.418 94.0633C76.36 94.58 77.1181 95.2728 77.6925 96.1418C78.2783 96.999 78.6747 97.9854 78.8814 99.1009C79.0997 100.217 79.1341 101.391 78.9848 102.624L78.6747 104.702H66.4925C66.4695 105.313 66.5442 105.882 66.7165 106.411C66.8888 106.928 67.1358 107.38 67.4574 107.767C67.7906 108.155 68.1984 108.466 68.6808 108.701C69.1633 108.924 69.7147 109.041 70.335 109.053C71.3114 109.088 72.2304 108.918 73.0919 108.542C73.9649 108.155 74.7346 107.609 75.4008 106.904L77.5202 109.564C77.1067 110.174 76.6012 110.697 76.0039 111.131C75.418 111.566 74.7805 111.924 74.0913 112.206C73.4135 112.488 72.7071 112.693 71.9719 112.822C71.2367 112.952 70.5245 113.01 69.8353 112.999ZM71.7134 97.181C71.0931 97.1575 70.536 97.2632 70.0421 97.4981C69.5481 97.7329 69.1059 98.05 68.7153 98.4492C68.3362 98.8485 68.0031 99.3006 67.7159 99.8055C67.4287 100.31 67.176 100.821 66.9578 101.338H74.5565L74.6427 100.898C74.7231 100.381 74.7116 99.8995 74.6082 99.4532C74.5048 99.007 74.321 98.6195 74.0568 98.2907C73.8041 97.9619 73.4767 97.7035 73.0747 97.5157C72.6841 97.316 72.2304 97.2045 71.7134 97.181Z" fill="#F1F5F9"/>
<path d="M89.1351 112.999C87.86 112.975 86.7056 112.728 85.6717 112.259C84.6494 111.777 83.7821 111.131 83.0699 110.321C82.3692 109.499 81.8522 108.536 81.5191 107.432C81.186 106.329 81.0768 105.131 81.1917 103.839L81.2606 103.117C81.41 101.778 81.7603 100.504 82.3117 99.2947C82.8631 98.0852 83.5753 97.0283 84.4483 96.1241C85.3328 95.22 86.3609 94.5036 87.5326 93.9752C88.7043 93.4468 89.9794 93.2002 91.3579 93.2354C92.6559 93.2706 93.7759 93.5466 94.7178 94.0633C95.6598 94.58 96.4179 95.2728 96.9923 96.1418C97.5782 96.999 97.9745 97.9854 98.1812 99.1009C98.3995 100.217 98.4339 101.391 98.2846 102.624L97.9745 104.702H85.7923C85.7694 105.313 85.844 105.882 86.0163 106.411C86.1886 106.928 86.4356 107.38 86.7572 107.767C87.0904 108.155 87.4982 108.466 87.9806 108.701C88.4631 108.924 89.0145 109.041 89.6348 109.053C90.6112 109.088 91.5302 108.918 92.3917 108.542C93.2647 108.155 94.0344 107.609 94.7006 106.904L96.82 109.564C96.4065 110.174 95.901 110.697 95.3037 111.131C94.7178 111.566 94.0803 111.924 93.3911 112.206C92.7133 112.488 92.0069 112.693 91.2717 112.822C90.5365 112.952 89.8243 113.01 89.1351 112.999ZM91.0132 97.181C90.3929 97.1575 89.8358 97.2632 89.3419 97.4981C88.8479 97.7329 88.4057 98.05 88.0151 98.4492C87.636 98.8485 87.3029 99.3006 87.0157 99.8055C86.7285 100.31 86.4758 100.821 86.2576 101.338H93.8563L93.9425 100.898C94.0229 100.381 94.0114 99.8995 93.908 99.4532C93.8046 99.007 93.6208 98.6195 93.3566 98.2907C93.1039 97.9619 92.7765 97.7035 92.3745 97.5157C91.9839 97.316 91.5302 97.2045 91.0132 97.181Z" fill="#F1F5F9"/>
<path d="M106.316 108.718H116.826L116.223 112.646H99.1992L99.6989 109.44L111.485 97.5685H101.732L102.352 93.5877H118.722L118.239 96.7054L106.316 108.718Z" fill="#F1F5F9"/>
<path d="M127.735 112.999C126.46 112.975 125.305 112.728 124.271 112.259C123.249 111.777 122.382 111.131 121.669 110.321C120.969 109.499 120.452 108.536 120.119 107.432C119.786 106.329 119.676 105.131 119.791 103.839L119.86 103.117C120.01 101.778 120.36 100.504 120.911 99.2947C121.463 98.0852 122.175 97.0283 123.048 96.1241C123.932 95.22 124.961 94.5036 126.132 93.9752C127.304 93.4468 128.579 93.2002 129.957 93.2354C131.256 93.2706 132.376 93.5466 133.317 94.0633C134.259 94.58 135.018 95.2728 135.592 96.1418C136.178 96.999 136.574 97.9854 136.781 99.1009C136.999 100.217 137.034 101.391 136.884 102.624L136.574 104.702H124.392C124.369 105.313 124.444 105.882 124.616 106.411C124.788 106.928 125.035 107.38 125.357 107.767C125.69 108.155 126.098 108.466 126.58 108.701C127.063 108.924 127.614 109.041 128.234 109.053C129.211 109.088 130.13 108.918 130.991 108.542C131.864 108.155 132.634 107.609 133.3 106.904L135.42 109.564C135.006 110.174 134.501 110.697 133.903 111.131C133.317 111.566 132.68 111.924 131.991 112.206C131.313 112.488 130.606 112.693 129.871 112.822C129.136 112.952 128.424 113.01 127.735 112.999ZM129.613 97.181C128.993 97.1575 128.435 97.2632 127.941 97.4981C127.448 97.7329 127.005 98.05 126.615 98.4492C126.236 98.8485 125.902 99.3006 125.615 99.8055C125.328 100.31 125.075 100.821 124.857 101.338H132.456L132.542 100.898C132.622 100.381 132.611 99.8995 132.508 99.4532C132.404 99.007 132.22 98.6195 131.956 98.2907C131.704 97.9619 131.376 97.7035 130.974 97.5157C130.584 97.316 130.13 97.2045 129.613 97.181Z" fill="#F1F5F9"/>
<path d="M147.931 87L148.585 96.5645L152.824 87H158.751L154.392 112.646H150.05L151.377 104.861L153.513 93.4468L148.602 104.191H146.242L145.191 93.3587L143.364 105.248L142.107 112.646H137.764L142.124 87H147.931Z" fill="#F1F5F9"/>
<path d="M164.282 108.648H169.986L175 112.646H166.936H158.872L163.214 87H167.97L164.282 108.648Z" fill="#F1F5F9"/>
</svg>
