<svg width="156" height="26" viewBox="0 0 156 26" fill="none" xmlns="http://www.w3.org/2000/svg">
<path d="M0 25.6462L4.42763 0L12.4779 0.0176142C13.5512 0.0410998 14.5896 0.182013 15.5929 0.440354C16.5963 0.686953 17.4772 1.08621 18.2355 1.63812C18.9939 2.17829 19.5831 2.87698 20.0031 3.73421C20.4231 4.59143 20.5864 5.63654 20.4931 6.86953C20.4348 7.5741 20.2831 8.21995 20.0381 8.80709C19.7931 9.38249 19.4664 9.89917 19.058 10.3571C18.6614 10.8151 18.1947 11.2261 17.658 11.5901C17.133 11.9424 16.5613 12.2477 15.943 12.5061C16.5263 12.7174 17.0222 13.011 17.4305 13.3868C17.8505 13.7625 18.1889 14.1912 18.4455 14.6726C18.7022 15.1541 18.883 15.6825 18.988 16.2579C19.093 16.8215 19.128 17.3969 19.093 17.9841C18.9997 19.3345 18.6672 20.497 18.0955 21.4717C17.5238 22.4463 16.7888 23.2448 15.8905 23.8672C15.0038 24.4896 13.9887 24.9475 12.8454 25.2411C11.702 25.5229 10.5178 25.658 9.29277 25.6462H0ZM6.77269 14.3379L5.51266 21.6478L9.52027 21.6831C10.1036 21.6713 10.6636 21.5891 11.2003 21.4365C11.7487 21.2838 12.2387 21.0548 12.6704 20.7495C13.1137 20.4325 13.4812 20.0449 13.7729 19.587C14.0646 19.129 14.2571 18.5888 14.3504 17.9665C14.5137 16.8626 14.3446 15.9995 13.8429 15.3772C13.3412 14.7431 12.542 14.4025 11.4453 14.3556L6.77269 14.3379ZM7.38521 10.7623L10.7278 10.7975C11.2995 10.7975 11.8595 10.7329 12.4079 10.6037C12.9562 10.4746 13.4521 10.2691 13.8954 9.98724C14.3504 9.70541 14.7296 9.34726 15.0329 8.91278C15.3363 8.46655 15.5346 7.92638 15.6279 7.29227C15.7096 6.70513 15.6804 6.21193 15.5404 5.81268C15.4004 5.40168 15.1788 5.07288 14.8754 4.82629C14.5721 4.56794 14.1987 4.38006 13.7554 4.26263C13.312 4.13346 12.8279 4.063 12.3029 4.05126L8.55774 4.03365L7.38521 10.7623Z" fill="url(#paint0_linear_12_2)"/>
<path d="M36.0874 6.20019C36.6941 6.21193 37.2891 6.26478 37.8725 6.35872C38.4675 6.44092 39.0625 6.55835 39.6575 6.711L38.3625 11.5901C37.7558 11.4375 37.1491 11.32 36.5424 11.2378C35.9358 11.1439 35.3174 11.0911 34.6874 11.0793C32.214 11.0558 30.3239 12.0892 29.0172 14.1794L27.0397 25.6462H22.297L25.5871 6.5877H29.9973L29.5072 9.72303C29.9273 9.20634 30.3764 8.73076 30.8548 8.29628C31.3331 7.8618 31.8465 7.4919 32.3948 7.18659C32.9432 6.86953 33.5207 6.6288 34.1274 6.4644C34.7457 6.28826 35.3991 6.20019 36.0874 6.20019Z" fill="url(#paint1_linear_12_2)"/>
<path d="M48.5842 25.9985C47.2892 25.975 46.1166 25.7284 45.0666 25.2587C44.0282 24.7773 43.1474 24.1314 42.424 23.3212C41.7123 22.4992 41.1873 21.5363 40.849 20.4325C40.5106 19.3286 40.3998 18.1309 40.5165 16.8392L40.5865 16.117C40.7381 14.7783 41.094 13.5042 41.654 12.2947C42.214 11.0852 42.9374 10.0283 43.8241 9.12415C44.7224 8.21995 45.7666 7.50364 46.9566 6.97522C48.1467 6.44679 49.4417 6.20019 50.8418 6.23542C52.1601 6.27065 53.2977 6.5466 54.2544 7.06329C55.211 7.57997 55.9811 8.27279 56.5644 9.14176C57.1594 9.99898 57.562 10.9854 57.772 12.1009C57.9936 13.2165 58.0286 14.3908 57.877 15.6238L57.5619 17.7023H45.1891C45.1658 18.3129 45.2416 18.8824 45.4166 19.4108C45.5916 19.9275 45.8424 20.3796 46.1691 20.7671C46.5075 21.1546 46.9216 21.4658 47.4117 21.7007C47.9017 21.9238 48.4617 22.0412 49.0917 22.053C50.0834 22.0882 51.0168 21.9179 51.8918 21.5421C52.7785 21.1546 53.5602 20.6086 54.2369 19.904L56.3894 22.5638C55.9694 23.1744 55.4561 23.6969 54.8494 24.1314C54.2544 24.5659 53.6068 24.9241 52.9068 25.2059C52.2185 25.4877 51.5009 25.6932 50.7543 25.8224C50.0076 25.9516 49.2842 26.0103 48.5842 25.9985ZM50.4917 10.181C49.8617 10.1575 49.2959 10.2632 48.7942 10.4981C48.2925 10.7329 47.8433 11.05 47.4467 11.4492C47.0616 11.8485 46.7233 12.3006 46.4316 12.8055C46.14 13.3104 45.8833 13.8213 45.6616 14.3379H53.3793L53.4668 13.8976C53.5485 13.3809 53.5368 12.8995 53.4318 12.4532C53.3268 12.007 53.1402 11.6195 52.8718 11.2907C52.6151 10.9619 52.2826 10.7035 51.8743 10.5157C51.4776 10.316 51.0168 10.2045 50.4917 10.181Z" fill="url(#paint2_linear_12_2)"/>
<path d="M68.1861 25.9985C66.8911 25.975 65.7186 25.7284 64.6685 25.2587C63.6302 24.7773 62.7493 24.1314 62.026 23.3212C61.3143 22.4992 60.7893 21.5363 60.4509 20.4325C60.1126 19.3286 60.0018 18.1309 60.1184 16.8392L60.1884 16.117C60.3401 14.7783 60.6959 13.5042 61.256 12.2947C61.816 11.0852 62.5393 10.0283 63.426 9.12415C64.3244 8.21995 65.3686 7.50364 66.5586 6.97522C67.7486 6.44679 69.0437 6.20019 70.4437 6.23542C71.7621 6.27065 72.8996 6.5466 73.8563 7.06329C74.813 7.57997 75.583 8.27279 76.1664 9.14176C76.7614 9.99898 77.1639 10.9854 77.3739 12.1009C77.5956 13.2165 77.6306 14.3908 77.4789 15.6238L77.1639 17.7023H64.7911C64.7677 18.3129 64.8436 18.8824 65.0186 19.4108C65.1936 19.9275 65.4444 20.3796 65.7711 20.7671C66.1094 21.1546 66.5236 21.4658 67.0136 21.7007C67.5036 21.9238 68.0636 22.0412 68.6937 22.053C69.6854 22.0882 70.6187 21.9179 71.4937 21.5421C72.3804 21.1546 73.1621 20.6086 73.8388 19.904L75.9914 22.5638C75.5714 23.1744 75.058 23.6969 74.4513 24.1314C73.8563 24.5659 73.2088 24.9241 72.5088 25.2059C71.8204 25.4877 71.1029 25.6932 70.3562 25.8224C69.6095 25.9516 68.8862 26.0103 68.1861 25.9985ZM70.0937 10.181C69.4637 10.1575 68.8978 10.2632 68.3962 10.4981C67.8945 10.7329 67.4453 11.05 67.0486 11.4492C66.6636 11.8485 66.3253 12.3006 66.0336 12.8055C65.7419 13.3104 65.4852 13.8213 65.2636 14.3379H72.9813L73.0688 13.8976C73.1505 13.3809 73.1388 12.8995 73.0338 12.4532C72.9288 12.007 72.7421 11.6195 72.4738 11.2907C72.2171 10.9619 71.8846 10.7035 71.4762 10.5157C71.0796 10.316 70.6187 10.2045 70.0937 10.181Z" fill="url(#paint3_linear_12_2)"/>
<path d="M85.6355 21.7183H96.3109L95.6983 25.6462H78.4078L78.9154 22.4405L90.8857 10.5685H80.9804L81.6104 6.5877H98.2359L97.7459 9.70541L85.6355 21.7183Z" fill="url(#paint4_linear_12_2)"/>
<path d="M107.39 25.9985C106.095 25.975 104.922 25.7284 103.872 25.2587C102.834 24.7773 101.953 24.1314 101.23 23.3212C100.518 22.4992 99.9932 21.5363 99.6548 20.4325C99.3165 19.3286 99.2057 18.1309 99.3223 16.8392L99.3923 16.117C99.544 14.7783 99.8999 13.5042 100.46 12.2947C101.02 11.0852 101.743 10.0283 102.63 9.12415C103.528 8.21995 104.572 7.50364 105.763 6.97522C106.953 6.44679 108.248 6.20019 109.648 6.23542C110.966 6.27065 112.104 6.5466 113.06 7.06329C114.017 7.57997 114.787 8.27279 115.37 9.14176C115.965 9.99898 116.368 10.9854 116.578 12.1009C116.8 13.2165 116.835 14.3908 116.683 15.6238L116.368 17.7023H103.995C103.972 18.3129 104.047 18.8824 104.222 19.4108C104.397 19.9275 104.648 20.3796 104.975 20.7671C105.313 21.1546 105.728 21.4658 106.218 21.7007C106.708 21.9238 107.268 22.0412 107.898 22.053C108.889 22.0882 109.823 21.9179 110.698 21.5421C111.584 21.1546 112.366 20.6086 113.043 19.904L115.195 22.5638C114.775 23.1744 114.262 23.6969 113.655 24.1314C113.06 24.5659 112.413 24.9241 111.713 25.2059C111.024 25.4877 110.307 25.6932 109.56 25.8224C108.813 25.9516 108.09 26.0103 107.39 25.9985ZM109.298 10.181C108.668 10.1575 108.102 10.2632 107.6 10.4981C107.098 10.7329 106.649 11.05 106.253 11.4492C105.868 11.8485 105.529 12.3006 105.238 12.8055C104.946 13.3104 104.689 13.8213 104.467 14.3379H112.185L112.273 13.8976C112.354 13.3809 112.343 12.8995 112.238 12.4532C112.133 12.007 111.946 11.6195 111.678 11.2907C111.421 10.9619 111.089 10.7035 110.68 10.5157C110.283 10.316 109.823 10.2045 109.298 10.181Z" fill="url(#paint5_linear_12_2)"/>
<path d="M127.902 0L128.567 9.5645L132.872 0H138.892L134.465 25.6462H130.055L131.402 17.8608L133.572 6.44679L128.585 17.1914H126.187L125.119 6.35872L123.264 18.2483L121.987 25.6462H117.577L122.004 0H127.902Z" fill="url(#paint6_linear_12_2)"/>
<path d="M144.51 21.6478H150.303L155.395 25.6462H147.205H139.015L143.425 0H148.255L144.51 21.6478Z" fill="url(#paint7_linear_12_2)"/>
<defs>
<linearGradient id="paint0_linear_12_2" x1="5.6235" y1="-2.97601e-05" x2="155.015" y2="25.3255" gradientUnits="userSpaceOnUse">
<stop stop-color="#2174EA"/>
<stop offset="1" stop-color="#21BAEA"/>
</linearGradient>
<linearGradient id="paint1_linear_12_2" x1="5.6235" y1="-2.97601e-05" x2="155.015" y2="25.3255" gradientUnits="userSpaceOnUse">
<stop stop-color="#2174EA"/>
<stop offset="1" stop-color="#21BAEA"/>
</linearGradient>
<linearGradient id="paint2_linear_12_2" x1="5.6235" y1="-2.97601e-05" x2="155.015" y2="25.3255" gradientUnits="userSpaceOnUse">
<stop stop-color="#2174EA"/>
<stop offset="1" stop-color="#21BAEA"/>
</linearGradient>
<linearGradient id="paint3_linear_12_2" x1="5.6235" y1="-2.97601e-05" x2="155.015" y2="25.3255" gradientUnits="userSpaceOnUse">
<stop stop-color="#2174EA"/>
<stop offset="1" stop-color="#21BAEA"/>
</linearGradient>
<linearGradient id="paint4_linear_12_2" x1="5.6235" y1="-2.97601e-05" x2="155.015" y2="25.3255" gradientUnits="userSpaceOnUse">
<stop stop-color="#2174EA"/>
<stop offset="1" stop-color="#21BAEA"/>
</linearGradient>
<linearGradient id="paint5_linear_12_2" x1="5.6235" y1="-2.97601e-05" x2="155.015" y2="25.3255" gradientUnits="userSpaceOnUse">
<stop stop-color="#2174EA"/>
<stop offset="1" stop-color="#21BAEA"/>
</linearGradient>
<linearGradient id="paint6_linear_12_2" x1="5.6235" y1="-2.97601e-05" x2="155.015" y2="25.3255" gradientUnits="userSpaceOnUse">
<stop stop-color="#2174EA"/>
<stop offset="1" stop-color="#21BAEA"/>
</linearGradient>
<linearGradient id="paint7_linear_12_2" x1="5.6235" y1="-2.97601e-05" x2="155.015" y2="25.3255" gradientUnits="userSpaceOnUse">
<stop stop-color="#2174EA"/>
<stop offset="1" stop-color="#21BAEA"/>
</linearGradient>
</defs>
</svg>
