<svg width="200" height="200" viewBox="0 0 200 200" fill="none" xmlns="http://www.w3.org/2000/svg">
<rect width="200" height="200" fill="white"/>
<path d="M23 112.646L27.3594 87L35.2855 87.0176C36.3423 87.0411 37.3647 87.182 38.3526 87.4404C39.3405 87.687 40.2078 88.0862 40.9544 88.6381C41.7011 89.1783 42.2812 89.877 42.6947 90.7342C43.1083 91.5914 43.2691 92.6365 43.1772 93.8695C43.1198 94.5741 42.9704 95.22 42.7292 95.8071C42.488 96.3825 42.1663 96.8992 41.7643 97.3571C41.3737 97.8151 40.9142 98.2261 40.3858 98.5901C39.8689 98.9424 39.306 99.2477 38.6972 99.5061C39.2716 99.7174 39.7598 100.011 40.1618 100.387C40.5754 100.763 40.9085 101.191 41.1612 101.673C41.4139 102.154 41.592 102.682 41.6954 103.258C41.7987 103.822 41.8332 104.397 41.7987 104.984C41.7068 106.334 41.3795 107.497 40.8166 108.472C40.2537 109.446 39.53 110.245 38.6455 110.867C37.7725 111.49 36.7731 111.948 35.6474 112.241C34.5216 112.523 33.3557 112.658 32.1495 112.646H23ZM29.6683 101.338L28.4277 108.648L32.3735 108.683C32.9479 108.671 33.4993 108.589 34.0277 108.436C34.5676 108.284 35.05 108.055 35.4751 107.75C35.9116 107.432 36.2734 107.045 36.5606 106.587C36.8478 106.129 37.0373 105.589 37.1292 104.966C37.29 103.863 37.1235 103 36.6295 102.377C36.1356 101.743 35.3487 101.403 34.2689 101.356L29.6683 101.338ZM30.2714 97.7623L33.5624 97.7975C34.1253 97.7975 34.6767 97.7329 35.2166 97.6037C35.7565 97.4746 36.2447 97.2691 36.6812 96.9872C37.1292 96.7054 37.5025 96.3473 37.8012 95.9128C38.0999 95.4665 38.2952 94.9264 38.387 94.2923C38.4675 93.7051 38.4387 93.2119 38.3009 92.8127C38.163 92.4017 37.9448 92.0729 37.6461 91.8263C37.3475 91.5679 36.9799 91.3801 36.5434 91.2626C36.1068 91.1335 35.6301 91.063 35.1132 91.0513L31.4258 91.0336L30.2714 97.7623Z" fill="url(#paint0_linear_11_5)"/>
<path d="M58.5312 93.2002C59.1285 93.2119 59.7143 93.2648 60.2887 93.3587C60.8745 93.4409 61.4604 93.5583 62.0462 93.711L60.7712 98.5901C60.1738 98.4375 59.5765 98.32 58.9792 98.2378C58.3818 98.1439 57.773 98.0911 57.1527 98.0793C54.7174 98.0558 52.8565 99.0892 51.5699 101.179L49.6229 112.646H44.9533L48.1927 93.5877H52.5349L52.0524 96.723C52.4659 96.2063 52.9082 95.7308 53.3792 95.2963C53.8501 94.8618 54.3556 94.4919 54.8955 94.1866C55.4354 93.8695 56.004 93.6288 56.6013 93.4644C57.2101 93.2883 57.8534 93.2002 58.5312 93.2002Z" fill="url(#paint1_linear_11_5)"/>
<path d="M70.8353 112.999C69.5602 112.975 68.4058 112.728 67.3719 112.259C66.3495 111.777 65.4823 111.131 64.7701 110.321C64.0694 109.499 63.5524 108.536 63.2193 107.432C62.8862 106.329 62.777 105.131 62.8919 103.839L62.9608 103.117C63.1102 101.778 63.4605 100.504 64.0119 99.2947C64.5633 98.0852 65.2755 97.0283 66.1485 96.1241C67.033 95.22 68.0611 94.5036 69.2328 93.9752C70.4045 93.4468 71.6796 93.2002 73.0581 93.2354C74.3561 93.2706 75.4761 93.5466 76.418 94.0633C77.36 94.58 78.1181 95.2728 78.6925 96.1418C79.2784 96.999 79.6747 97.9854 79.8814 99.1009C80.0997 100.217 80.1341 101.391 79.9848 102.624L79.6747 104.702H67.4925C67.4695 105.313 67.5442 105.882 67.7165 106.411C67.8888 106.928 68.1358 107.38 68.4574 107.767C68.7906 108.155 69.1984 108.466 69.6808 108.701C70.1633 108.924 70.7147 109.041 71.335 109.053C72.3114 109.088 73.2304 108.918 74.0919 108.542C74.9649 108.155 75.7346 107.609 76.4008 106.904L78.5202 109.564C78.1067 110.174 77.6012 110.697 77.0039 111.131C76.418 111.566 75.7805 111.924 75.0913 112.206C74.4135 112.488 73.7071 112.693 72.9719 112.822C72.2367 112.952 71.5245 113.01 70.8353 112.999ZM72.7134 97.181C72.0931 97.1575 71.536 97.2632 71.0421 97.4981C70.5481 97.7329 70.1059 98.05 69.7153 98.4492C69.3362 98.8485 69.0031 99.3006 68.7159 99.8055C68.4287 100.31 68.176 100.821 67.9578 101.338H75.5565L75.6427 100.898C75.7231 100.381 75.7116 99.8995 75.6082 99.4532C75.5048 99.007 75.321 98.6195 75.0568 98.2907C74.8041 97.9619 74.4767 97.7035 74.0747 97.5157C73.6841 97.316 73.2304 97.2045 72.7134 97.181Z" fill="url(#paint2_linear_11_5)"/>
<path d="M90.1351 112.999C88.86 112.975 87.7056 112.728 86.6717 112.259C85.6494 111.777 84.7821 111.131 84.0699 110.321C83.3692 109.499 82.8522 108.536 82.5191 107.432C82.186 106.329 82.0769 105.131 82.1917 103.839L82.2606 103.117C82.41 101.778 82.7603 100.504 83.3117 99.2947C83.8631 98.0852 84.5753 97.0283 85.4483 96.1241C86.3328 95.22 87.3609 94.5036 88.5326 93.9752C89.7043 93.4468 90.9794 93.2002 92.3579 93.2354C93.6559 93.2706 94.7759 93.5466 95.7178 94.0633C96.6598 94.58 97.4179 95.2728 97.9923 96.1418C98.5782 96.999 98.9745 97.9854 99.1812 99.1009C99.3995 100.217 99.4339 101.391 99.2846 102.624L98.9745 104.702H86.7923C86.7694 105.313 86.844 105.882 87.0163 106.411C87.1886 106.928 87.4356 107.38 87.7572 107.767C88.0904 108.155 88.4982 108.466 88.9806 108.701C89.4631 108.924 90.0145 109.041 90.6348 109.053C91.6112 109.088 92.5302 108.918 93.3917 108.542C94.2647 108.155 95.0344 107.609 95.7006 106.904L97.82 109.564C97.4065 110.174 96.901 110.697 96.3037 111.131C95.7178 111.566 95.0803 111.924 94.3911 112.206C93.7133 112.488 93.0069 112.693 92.2717 112.822C91.5365 112.952 90.8243 113.01 90.1351 112.999ZM92.0132 97.181C91.3929 97.1575 90.8358 97.2632 90.3419 97.4981C89.8479 97.7329 89.4057 98.05 89.0151 98.4492C88.636 98.8485 88.3029 99.3006 88.0157 99.8055C87.7285 100.31 87.4758 100.821 87.2576 101.338H94.8563L94.9425 100.898C95.0229 100.381 95.0114 99.8995 94.908 99.4532C94.8046 99.007 94.6208 98.6195 94.3566 98.2907C94.1039 97.9619 93.7765 97.7035 93.3745 97.5157C92.9839 97.316 92.5302 97.2045 92.0132 97.181Z" fill="url(#paint3_linear_11_5)"/>
<path d="M107.316 108.718H117.826L117.223 112.646H100.199L100.699 109.44L112.485 97.5685H102.732L103.352 93.5877H119.722L119.239 96.7054L107.316 108.718Z" fill="url(#paint4_linear_11_5)"/>
<path d="M128.735 112.999C127.46 112.975 126.305 112.728 125.271 112.259C124.249 111.777 123.382 111.131 122.669 110.321C121.969 109.499 121.452 108.536 121.119 107.432C120.786 106.329 120.676 105.131 120.791 103.839L120.86 103.117C121.01 101.778 121.36 100.504 121.911 99.2947C122.463 98.0852 123.175 97.0283 124.048 96.1241C124.932 95.22 125.961 94.5036 127.132 93.9752C128.304 93.4468 129.579 93.2002 130.957 93.2354C132.256 93.2706 133.376 93.5466 134.317 94.0633C135.259 94.58 136.018 95.2728 136.592 96.1418C137.178 96.999 137.574 97.9854 137.781 99.1009C137.999 100.217 138.034 101.391 137.884 102.624L137.574 104.702H125.392C125.369 105.313 125.444 105.882 125.616 106.411C125.788 106.928 126.035 107.38 126.357 107.767C126.69 108.155 127.098 108.466 127.58 108.701C128.063 108.924 128.614 109.041 129.234 109.053C130.211 109.088 131.13 108.918 131.991 108.542C132.864 108.155 133.634 107.609 134.3 106.904L136.42 109.564C136.006 110.174 135.501 110.697 134.903 111.131C134.317 111.566 133.68 111.924 132.991 112.206C132.313 112.488 131.606 112.693 130.871 112.822C130.136 112.952 129.424 113.01 128.735 112.999ZM130.613 97.181C129.993 97.1575 129.435 97.2632 128.941 97.4981C128.448 97.7329 128.005 98.05 127.615 98.4492C127.236 98.8485 126.902 99.3006 126.615 99.8055C126.328 100.31 126.075 100.821 125.857 101.338H133.456L133.542 100.898C133.622 100.381 133.611 99.8995 133.508 99.4532C133.404 99.007 133.22 98.6195 132.956 98.2907C132.704 97.9619 132.376 97.7035 131.974 97.5157C131.584 97.316 131.13 97.2045 130.613 97.181Z" fill="url(#paint5_linear_11_5)"/>
<path d="M148.931 87L149.585 96.5645L153.824 87H159.751L155.392 112.646H151.05L152.377 104.861L154.513 93.4468L149.602 104.191H147.242L146.191 93.3587L144.364 105.248L143.107 112.646H138.764L143.124 87H148.931Z" fill="url(#paint6_linear_11_5)"/>
<path d="M165.282 108.648H170.986L176 112.646H167.936H159.872L164.214 87H168.97L165.282 108.648Z" fill="url(#paint7_linear_11_5)"/>
<defs>
<linearGradient id="paint0_linear_11_5" x1="28.5368" y1="87" x2="175.752" y2="111.572" gradientUnits="userSpaceOnUse">
<stop stop-color="#2174EA"/>
<stop offset="1" stop-color="#21BAEA"/>
</linearGradient>
<linearGradient id="paint1_linear_11_5" x1="28.5368" y1="87" x2="175.752" y2="111.572" gradientUnits="userSpaceOnUse">
<stop stop-color="#2174EA"/>
<stop offset="1" stop-color="#21BAEA"/>
</linearGradient>
<linearGradient id="paint2_linear_11_5" x1="28.5368" y1="87" x2="175.752" y2="111.572" gradientUnits="userSpaceOnUse">
<stop stop-color="#2174EA"/>
<stop offset="1" stop-color="#21BAEA"/>
</linearGradient>
<linearGradient id="paint3_linear_11_5" x1="28.5368" y1="87" x2="175.752" y2="111.572" gradientUnits="userSpaceOnUse">
<stop stop-color="#2174EA"/>
<stop offset="1" stop-color="#21BAEA"/>
</linearGradient>
<linearGradient id="paint4_linear_11_5" x1="28.5368" y1="87" x2="175.752" y2="111.572" gradientUnits="userSpaceOnUse">
<stop stop-color="#2174EA"/>
<stop offset="1" stop-color="#21BAEA"/>
</linearGradient>
<linearGradient id="paint5_linear_11_5" x1="28.5368" y1="87" x2="175.752" y2="111.572" gradientUnits="userSpaceOnUse">
<stop stop-color="#2174EA"/>
<stop offset="1" stop-color="#21BAEA"/>
</linearGradient>
<linearGradient id="paint6_linear_11_5" x1="28.5368" y1="87" x2="175.752" y2="111.572" gradientUnits="userSpaceOnUse">
<stop stop-color="#2174EA"/>
<stop offset="1" stop-color="#21BAEA"/>
</linearGradient>
<linearGradient id="paint7_linear_11_5" x1="28.5368" y1="87" x2="175.752" y2="111.572" gradientUnits="userSpaceOnUse">
<stop stop-color="#2174EA"/>
<stop offset="1" stop-color="#21BAEA"/>
</linearGradient>
</defs>
</svg>
