<svg width="158" height="30" viewBox="0 0 158 30" fill="none" xmlns="http://www.w3.org/2000/svg">
<g filter="url(#filter0_d_13_12)">
<path d="M0 26.6462L4.42763 1L12.4779 1.01761C13.5512 1.0411 14.5896 1.18201 15.5929 1.44035C16.5963 1.68695 17.4772 2.08621 18.2355 2.63812C18.9939 3.17829 19.5831 3.87698 20.0031 4.73421C20.4231 5.59143 20.5864 6.63654 20.4931 7.86953C20.4348 8.5741 20.2831 9.21995 20.0381 9.80709C19.7931 10.3825 19.4664 10.8992 19.058 11.3571C18.6614 11.8151 18.1947 12.2261 17.658 12.5901C17.133 12.9424 16.5613 13.2477 15.943 13.5061C16.5263 13.7174 17.0222 14.011 17.4305 14.3868C17.8505 14.7625 18.1889 15.1912 18.4455 15.6726C18.7022 16.1541 18.883 16.6825 18.988 17.2579C19.093 17.8215 19.128 18.3969 19.093 18.9841C18.9997 20.3345 18.6672 21.497 18.0955 22.4717C17.5238 23.4463 16.7888 24.2448 15.8905 24.8672C15.0038 25.4896 13.9887 25.9476 12.8454 26.2411C11.702 26.5229 10.5178 26.658 9.29277 26.6462H0ZM6.77269 15.3379L5.51266 22.6478L9.52027 22.6831C10.1036 22.6713 10.6636 22.5891 11.2003 22.4365C11.7487 22.2838 12.2387 22.0548 12.6704 21.7495C13.1137 21.4325 13.4812 21.0449 13.7729 20.587C14.0646 20.129 14.2571 19.5888 14.3504 18.9665C14.5137 17.8626 14.3446 16.9995 13.8429 16.3772C13.3412 15.7431 12.542 15.4025 11.4453 15.3556L6.77269 15.3379ZM7.38521 11.7623L10.7278 11.7975C11.2995 11.7975 11.8595 11.7329 12.4079 11.6037C12.9562 11.4746 13.4521 11.2691 13.8954 10.9872C14.3504 10.7054 14.7296 10.3473 15.0329 9.91278C15.3363 9.46655 15.5346 8.92638 15.6279 8.29227C15.7096 7.70513 15.6804 7.21193 15.5404 6.81268C15.4004 6.40168 15.1788 6.07288 14.8754 5.82629C14.5721 5.56794 14.1987 5.38006 13.7554 5.26263C13.312 5.13346 12.8279 5.063 12.3029 5.05126L8.55774 5.03365L7.38521 11.7623Z" fill="url(#paint0_linear_13_12)"/>
<path d="M36.0874 7.20019C36.6941 7.21193 37.2891 7.26478 37.8725 7.35872C38.4675 7.44092 39.0625 7.55835 39.6575 7.711L38.3625 12.5901C37.7558 12.4375 37.1491 12.32 36.5424 12.2378C35.9358 12.1439 35.3174 12.0911 34.6874 12.0793C32.214 12.0558 30.3239 13.0892 29.0172 15.1794L27.0397 26.6462H22.297L25.5871 7.5877H29.9973L29.5072 10.723C29.9273 10.2063 30.3764 9.73076 30.8548 9.29628C31.3331 8.8618 31.8465 8.4919 32.3948 8.18659C32.9432 7.86953 33.5207 7.6288 34.1274 7.4644C34.7457 7.28826 35.3991 7.20019 36.0874 7.20019Z" fill="url(#paint1_linear_13_12)"/>
<path d="M48.5842 26.9985C47.2892 26.975 46.1166 26.7284 45.0666 26.2587C44.0282 25.7773 43.1474 25.1314 42.424 24.3212C41.7123 23.4992 41.1873 22.5363 40.849 21.4325C40.5106 20.3286 40.3998 19.1309 40.5165 17.8392L40.5865 17.117C40.7381 15.7783 41.094 14.5042 41.654 13.2947C42.214 12.0852 42.9374 11.0283 43.8241 10.1241C44.7224 9.21995 45.7666 8.50364 46.9566 7.97522C48.1467 7.44679 49.4417 7.20019 50.8418 7.23542C52.1601 7.27065 53.2977 7.5466 54.2544 8.06329C55.211 8.57997 55.9811 9.27279 56.5644 10.1418C57.1594 10.999 57.562 11.9854 57.772 13.1009C57.9936 14.2165 58.0286 15.3908 57.877 16.6238L57.5619 18.7023H45.1891C45.1658 19.3129 45.2416 19.8824 45.4166 20.4108C45.5916 20.9275 45.8424 21.3796 46.1691 21.7671C46.5075 22.1546 46.9216 22.4658 47.4117 22.7007C47.9017 22.9238 48.4617 23.0412 49.0917 23.053C50.0834 23.0882 51.0168 22.9179 51.8918 22.5421C52.7785 22.1546 53.5602 21.6086 54.2369 20.904L56.3894 23.5638C55.9694 24.1744 55.4561 24.6969 54.8494 25.1314C54.2544 25.5659 53.6068 25.9241 52.9068 26.2059C52.2185 26.4877 51.5009 26.6932 50.7543 26.8224C50.0076 26.9516 49.2842 27.0103 48.5842 26.9985ZM50.4917 11.181C49.8617 11.1575 49.2959 11.2632 48.7942 11.4981C48.2925 11.7329 47.8433 12.05 47.4467 12.4492C47.0616 12.8485 46.7233 13.3006 46.4316 13.8055C46.14 14.3104 45.8833 14.8213 45.6616 15.3379H53.3793L53.4668 14.8976C53.5485 14.3809 53.5368 13.8995 53.4318 13.4532C53.3268 13.007 53.1402 12.6195 52.8718 12.2907C52.6151 11.9619 52.2826 11.7035 51.8743 11.5157C51.4776 11.316 51.0168 11.2045 50.4917 11.181Z" fill="url(#paint2_linear_13_12)"/>
<path d="M68.1861 26.9985C66.8911 26.975 65.7186 26.7284 64.6686 26.2587C63.6302 25.7773 62.7493 25.1314 62.026 24.3212C61.3143 23.4992 60.7893 22.5363 60.4509 21.4325C60.1126 20.3286 60.0018 19.1309 60.1184 17.8392L60.1884 17.117C60.3401 15.7783 60.6959 14.5042 61.256 13.2947C61.816 12.0852 62.5393 11.0283 63.426 10.1241C64.3244 9.21995 65.3686 8.50364 66.5586 7.97522C67.7486 7.44679 69.0437 7.20019 70.4437 7.23542C71.7621 7.27065 72.8996 7.5466 73.8563 8.06329C74.813 8.57997 75.583 9.27279 76.1664 10.1418C76.7614 10.999 77.1639 11.9854 77.3739 13.1009C77.5956 14.2165 77.6306 15.3908 77.4789 16.6238L77.1639 18.7023H64.7911C64.7677 19.3129 64.8436 19.8824 65.0186 20.4108C65.1936 20.9275 65.4444 21.3796 65.7711 21.7671C66.1094 22.1546 66.5236 22.4658 67.0136 22.7007C67.5036 22.9238 68.0636 23.0412 68.6937 23.053C69.6854 23.0882 70.6187 22.9179 71.4937 22.5421C72.3804 22.1546 73.1621 21.6086 73.8388 20.904L75.9914 23.5638C75.5714 24.1744 75.058 24.6969 74.4513 25.1314C73.8563 25.5659 73.2088 25.9241 72.5088 26.2059C71.8204 26.4877 71.1029 26.6932 70.3562 26.8224C69.6095 26.9516 68.8862 27.0103 68.1861 26.9985ZM70.0937 11.181C69.4637 11.1575 68.8978 11.2632 68.3962 11.4981C67.8945 11.7329 67.4453 12.05 67.0486 12.4492C66.6636 12.8485 66.3253 13.3006 66.0336 13.8055C65.7419 14.3104 65.4852 14.8213 65.2636 15.3379H72.9813L73.0688 14.8976C73.1505 14.3809 73.1388 13.8995 73.0338 13.4532C72.9288 13.007 72.7421 12.6195 72.4738 12.2907C72.2171 11.9619 71.8846 11.7035 71.4762 11.5157C71.0796 11.316 70.6187 11.2045 70.0937 11.181Z" fill="url(#paint3_linear_13_12)"/>
<path d="M85.6355 22.7183H96.3109L95.6983 26.6462H78.4078L78.9154 23.4405L90.8857 11.5685H80.9804L81.6104 7.5877H98.2359L97.7459 10.7054L85.6355 22.7183Z" fill="url(#paint4_linear_13_12)"/>
<path d="M107.39 26.9985C106.095 26.975 104.922 26.7284 103.872 26.2587C102.834 25.7773 101.953 25.1314 101.23 24.3212C100.518 23.4992 99.9932 22.5363 99.6548 21.4325C99.3165 20.3286 99.2057 19.1309 99.3223 17.8392L99.3923 17.117C99.544 15.7783 99.8999 14.5042 100.46 13.2947C101.02 12.0852 101.743 11.0283 102.63 10.1241C103.528 9.21995 104.572 8.50364 105.763 7.97522C106.953 7.44679 108.248 7.20019 109.648 7.23542C110.966 7.27065 112.104 7.5466 113.06 8.06329C114.017 8.57997 114.787 9.27279 115.37 10.1418C115.965 10.999 116.368 11.9854 116.578 13.1009C116.8 14.2165 116.835 15.3908 116.683 16.6238L116.368 18.7023H103.995C103.972 19.3129 104.047 19.8824 104.222 20.4108C104.397 20.9275 104.648 21.3796 104.975 21.7671C105.313 22.1546 105.728 22.4658 106.218 22.7007C106.708 22.9238 107.268 23.0412 107.898 23.053C108.889 23.0882 109.823 22.9179 110.698 22.5421C111.584 22.1546 112.366 21.6086 113.043 20.904L115.195 23.5638C114.775 24.1744 114.262 24.6969 113.655 25.1314C113.06 25.5659 112.413 25.9241 111.713 26.2059C111.024 26.4877 110.307 26.6932 109.56 26.8224C108.813 26.9516 108.09 27.0103 107.39 26.9985ZM109.298 11.181C108.668 11.1575 108.102 11.2632 107.6 11.4981C107.098 11.7329 106.649 12.05 106.253 12.4492C105.868 12.8485 105.529 13.3006 105.238 13.8055C104.946 14.3104 104.689 14.8213 104.467 15.3379H112.185L112.273 14.8976C112.354 14.3809 112.343 13.8995 112.238 13.4532C112.133 13.007 111.946 12.6195 111.678 12.2907C111.421 11.9619 111.089 11.7035 110.68 11.5157C110.283 11.316 109.823 11.2045 109.298 11.181Z" fill="url(#paint5_linear_13_12)"/>
<path d="M127.902 1L128.567 10.5645L132.872 1H138.892L134.465 26.6462H130.055L131.402 18.8608L133.572 7.44679L128.585 18.1914H126.187L125.119 7.35872L123.264 19.2483L121.987 26.6462H117.577L122.004 1H127.902Z" fill="url(#paint6_linear_13_12)"/>
<path d="M144.51 22.6478H150.303L155.395 26.6462H147.205H139.015L143.425 1H148.255L144.51 22.6478Z" fill="url(#paint7_linear_13_12)"/>
</g>
<defs>
<filter id="filter0_d_13_12" x="-2" y="0" width="159.395" height="30" filterUnits="userSpaceOnUse" color-interpolation-filters="sRGB">
<feFlood flood-opacity="0" result="BackgroundImageFix"/>
<feColorMatrix in="SourceAlpha" type="matrix" values="0 0 0 0 0 0 0 0 0 0 0 0 0 0 0 0 0 0 127 0" result="hardAlpha"/>
<feOffset dy="1"/>
<feGaussianBlur stdDeviation="1"/>
<feColorMatrix type="matrix" values="0 0 0 0 0.0627451 0 0 0 0 0.113725 0 0 0 0 0.176471 0 0 0 0.12 0"/>
<feBlend mode="normal" in2="BackgroundImageFix" result="effect1_dropShadow_13_12"/>
<feBlend mode="normal" in="SourceGraphic" in2="effect1_dropShadow_13_12" result="shape"/>
</filter>
<linearGradient id="paint0_linear_13_12" x1="5.6235" y1="0.99997" x2="155.015" y2="26.3255" gradientUnits="userSpaceOnUse">
<stop stop-color="#2174EA"/>
<stop offset="1" stop-color="#21BAEA"/>
</linearGradient>
<linearGradient id="paint1_linear_13_12" x1="5.6235" y1="0.99997" x2="155.015" y2="26.3255" gradientUnits="userSpaceOnUse">
<stop stop-color="#2174EA"/>
<stop offset="1" stop-color="#21BAEA"/>
</linearGradient>
<linearGradient id="paint2_linear_13_12" x1="5.6235" y1="0.99997" x2="155.015" y2="26.3255" gradientUnits="userSpaceOnUse">
<stop stop-color="#2174EA"/>
<stop offset="1" stop-color="#21BAEA"/>
</linearGradient>
<linearGradient id="paint3_linear_13_12" x1="5.6235" y1="0.99997" x2="155.015" y2="26.3255" gradientUnits="userSpaceOnUse">
<stop stop-color="#2174EA"/>
<stop offset="1" stop-color="#21BAEA"/>
</linearGradient>
<linearGradient id="paint4_linear_13_12" x1="5.6235" y1="0.99997" x2="155.015" y2="26.3255" gradientUnits="userSpaceOnUse">
<stop stop-color="#2174EA"/>
<stop offset="1" stop-color="#21BAEA"/>
</linearGradient>
<linearGradient id="paint5_linear_13_12" x1="5.6235" y1="0.99997" x2="155.015" y2="26.3255" gradientUnits="userSpaceOnUse">
<stop stop-color="#2174EA"/>
<stop offset="1" stop-color="#21BAEA"/>
</linearGradient>
<linearGradient id="paint6_linear_13_12" x1="5.6235" y1="0.99997" x2="155.015" y2="26.3255" gradientUnits="userSpaceOnUse">
<stop stop-color="#2174EA"/>
<stop offset="1" stop-color="#21BAEA"/>
</linearGradient>
<linearGradient id="paint7_linear_13_12" x1="5.6235" y1="0.99997" x2="155.015" y2="26.3255" gradientUnits="userSpaceOnUse">
<stop stop-color="#2174EA"/>
<stop offset="1" stop-color="#21BAEA"/>
</linearGradient>
</defs>
</svg>
