<svg width="133" height="132" viewBox="0 0 133 132" fill="none" xmlns="http://www.w3.org/2000/svg">
<g filter="url(#filter0_d_1_45)">
<path d="M24.0243 125.206L60.4153 79.8843C56.1308 78.2745 52.718 74.8618 51.1083 70.5773L5.78175 106.968C0.739417 112.011 0.739417 120.173 5.78175 125.216C8.29796 127.737 11.6017 129 14.9055 129C18.2093 128.995 21.513 127.732 24.0243 125.206Z" fill="#101D2D"/>
<path d="M24.0243 125.206L60.4153 79.8843C56.1308 78.2745 52.718 74.8618 51.1083 70.5773L5.78175 106.968C0.739417 112.011 0.739417 120.173 5.78175 125.216C8.29796 127.737 11.6017 129 14.9055 129C18.2093 128.995 21.513 127.732 24.0243 125.206Z" fill="url(#paint0_linear_1_45)"/>
<path d="M80.8848 70.5773C79.2751 74.8618 75.8623 78.2795 71.5729 79.8843L107.969 125.221C110.49 127.742 113.794 129 117.093 129C120.396 129 123.695 127.737 126.221 125.216C131.264 120.173 131.264 112.011 126.221 106.968L80.8848 70.5773Z" fill="#101D2D"/>
<path d="M80.8848 70.5773C79.2751 74.8618 75.8623 78.2795 71.5729 79.8843L107.969 125.221C110.49 127.742 113.794 129 117.093 129C120.396 129 123.695 127.737 126.221 125.216C131.264 120.173 131.264 112.011 126.221 106.968L80.8848 70.5773Z" fill="url(#paint1_linear_1_45)"/>
<path d="M51.1101 59.4289C52.7248 55.1445 56.1326 51.7268 60.4221 50.117L24.0311 4.79048C21.5099 2.26931 18.2062 1.00625 14.9074 1.00625C11.6036 1.00625 8.29982 2.26931 5.78361 4.79048C0.741275 9.82785 0.736321 17.9956 5.78361 23.0429L51.1101 59.4289Z" fill="#101D2D"/>
<path d="M51.1101 59.4289C52.7248 55.1445 56.1326 51.7268 60.4221 50.117L24.0311 4.79048C21.5099 2.26931 18.2062 1.00625 14.9074 1.00625C11.6036 1.00625 8.29982 2.26931 5.78361 4.79048C0.741275 9.82785 0.736321 17.9956 5.78361 23.0429L51.1101 59.4289Z" fill="url(#paint2_linear_1_45)"/>
<path d="M80.8799 59.4227L126.216 23.0268C131.259 17.9894 131.259 9.8216 126.216 4.77927C123.69 2.25811 120.391 1 117.088 1C113.784 1 110.485 2.25811 107.969 4.77927L71.5729 50.1107C75.8623 51.7255 79.2701 55.1382 80.8799 59.4227Z" fill="#101D2D"/>
<path d="M80.8799 59.4227L126.216 23.0268C131.259 17.9894 131.259 9.8216 126.216 4.77927C123.69 2.25811 120.391 1 117.088 1C113.784 1 110.485 2.25811 107.969 4.77927L71.5729 50.1107C75.8623 51.7255 79.2701 55.1382 80.8799 59.4227Z" fill="url(#paint3_linear_1_45)"/>
<path d="M65.9838 75.7433C71.9145 75.7433 76.7223 70.9356 76.7223 65.0049C76.7223 59.0742 71.9145 54.2664 65.9838 54.2664C60.0531 54.2664 55.2453 59.0742 55.2453 65.0049C55.2453 70.9356 60.0531 75.7433 65.9838 75.7433Z" fill="#101D2D"/>
<path d="M65.9838 75.7433C71.9145 75.7433 76.7223 70.9356 76.7223 65.0049C76.7223 59.0742 71.9145 54.2664 65.9838 54.2664C60.0531 54.2664 55.2453 59.0742 55.2453 65.0049C55.2453 70.9356 60.0531 75.7433 65.9838 75.7433Z" fill="url(#paint4_linear_1_45)"/>
</g>
<defs>
<filter id="filter0_d_1_45" x="0" y="0" width="132.003" height="132" filterUnits="userSpaceOnUse" color-interpolation-filters="sRGB">
<feFlood flood-opacity="0" result="BackgroundImageFix"/>
<feColorMatrix in="SourceAlpha" type="matrix" values="0 0 0 0 0 0 0 0 0 0 0 0 0 0 0 0 0 0 127 0" result="hardAlpha"/>
<feOffset dy="1"/>
<feGaussianBlur stdDeviation="1"/>
<feColorMatrix type="matrix" values="0 0 0 0 0.0627451 0 0 0 0 0.113725 0 0 0 0 0.176471 0 0 0 0.12 0"/>
<feBlend mode="normal" in2="BackgroundImageFix" result="effect1_dropShadow_1_45"/>
<feBlend mode="normal" in="SourceGraphic" in2="effect1_dropShadow_1_45" result="shape"/>
</filter>
<linearGradient id="paint0_linear_1_45" x1="6.63221" y1="0.999853" x2="133.125" y2="4.58776" gradientUnits="userSpaceOnUse">
<stop stop-color="#2174EA"/>
<stop offset="1" stop-color="#21BAEA"/>
</linearGradient>
<linearGradient id="paint1_linear_1_45" x1="6.63221" y1="0.999853" x2="133.125" y2="4.58776" gradientUnits="userSpaceOnUse">
<stop stop-color="#2174EA"/>
<stop offset="1" stop-color="#21BAEA"/>
</linearGradient>
<linearGradient id="paint2_linear_1_45" x1="6.63221" y1="0.999853" x2="133.125" y2="4.58776" gradientUnits="userSpaceOnUse">
<stop stop-color="#2174EA"/>
<stop offset="1" stop-color="#21BAEA"/>
</linearGradient>
<linearGradient id="paint3_linear_1_45" x1="6.63221" y1="0.999853" x2="133.125" y2="4.58776" gradientUnits="userSpaceOnUse">
<stop stop-color="#2174EA"/>
<stop offset="1" stop-color="#21BAEA"/>
</linearGradient>
<linearGradient id="paint4_linear_1_45" x1="6.63221" y1="0.999853" x2="133.125" y2="4.58776" gradientUnits="userSpaceOnUse">
<stop stop-color="#2174EA"/>
<stop offset="1" stop-color="#21BAEA"/>
</linearGradient>
</defs>
</svg>
